<?xml version="1.0" encoding="UTF-8"?>
<svg id="Layer_1" data-name="Layer 1" xmlns="http://www.w3.org/2000/svg" xmlns:xlink="http://www.w3.org/1999/xlink" viewBox="0 0 583.94 350.78">
  <defs>
    <style>
      .cls-1 {
        fill: url(#linear-gradient);
      }

      .cls-2 {
        fill: #070000;
      }

      .cls-3 {
        fill: #050000;
      }
    </style>
    <linearGradient id="linear-gradient" x1="99.62" y1="250.15" x2="469.99" y2="250.15" gradientUnits="userSpaceOnUse">
      <stop offset="0" stop-color="#ec1c24"/>
      <stop offset=".04" stop-color="#eb2122"/>
      <stop offset=".09" stop-color="#eb3020"/>
      <stop offset=".15" stop-color="#ea491b"/>
      <stop offset=".21" stop-color="#e96c14"/>
      <stop offset=".27" stop-color="#e7980b"/>
      <stop offset=".33" stop-color="#e6ce01"/>
      <stop offset=".34" stop-color="#e6d700"/>
      <stop offset=".34" stop-color="#e4d600"/>
      <stop offset=".44" stop-color="#83bc27"/>
      <stop offset=".52" stop-color="#3ca943"/>
      <stop offset=".58" stop-color="#109d55"/>
      <stop offset=".61" stop-color="#00995c"/>
      <stop offset=".78" stop-color="#00abd2"/>
      <stop offset=".81" stop-color="#04a3cd"/>
      <stop offset=".87" stop-color="#108ec2"/>
      <stop offset=".93" stop-color="#256cb0"/>
      <stop offset="1" stop-color="#3f429a"/>
    </linearGradient>
  </defs>
  <g>
    <path class="cls-2" d="M166.76,221.44c-9.29-15.54-24.49-17.3-32.52-17.3-28.29,0-48.14,19.86-48.14,46.21,0,31.27,24.28,46.21,47.72,46.21,13.09,0,26.39-5.7,33.78-18.09v14.55h11.82v-102.81h-12.67v31.22ZM133.82,287.12c-21.11,0-34.2-16.72-34.2-36.77,0-16.72,10.56-36.77,34.63-36.77,20.06,0,33.36,16.71,33.36,36.77,0,22.42-14.15,36.77-33.78,36.77Z"/>
    <rect class="cls-2" x="188.41" y="207.67" width="12.67" height="85.35"/>
    <path class="cls-2" d="M285.95,222.82c-8.66-15.93-23.65-18.68-33.36-18.68-28.93,0-48.14,19.86-48.14,46.21,0,31.27,24.49,46.21,47.72,46.21,21.11,0,30.4-12.98,32.94-16.72v10.42c0,31.66-18.58,37.36-32.73,37.36-13.09,0-26.39-5.51-29.98-18.68h-13.93c3.38,12.98,13.93,28.12,43.92,28.12s45.39-18.68,45.39-46.8v-82.6h-11.82v15.14ZM252.17,287.12c-21.11,0-34.2-16.91-34.2-36.77,0-16.72,10.56-36.77,34.63-36.77,20.27,0,33.36,16.71,33.36,36.77,0,22.42-14.36,36.77-33.78,36.77Z"/>
    <rect class="cls-2" x="306.88" y="207.67" width="12.67" height="85.35"/>
    <polygon class="cls-2" points="368.57 207.67 350.83 207.67 350.83 190.22 338.16 190.22 338.16 207.67 323.38 207.67 323.38 217.11 338.16 217.11 338.16 293.02 350.83 293.02 350.83 217.11 368.57 217.11 368.57 207.67"/>
    <path class="cls-2" d="M449.47,222.82c-9.08-15.73-23.23-18.68-33.57-18.68-28.5,0-47.93,19.67-47.93,46.21s18.58,46.21,47.72,46.21c13.09,0,26.39-5.7,33.78-18.09v14.55h11.82v-85.35h-11.82v15.14ZM415.68,287.12c-21.11,0-34.2-16.91-34.2-36.77,0-21.24,14.57-36.77,34.63-36.77s33.36,16.71,33.36,36.77c0,22.42-14.36,36.77-33.78,36.77Z"/>
    <rect class="cls-2" x="469.99" y="190.22" width="12.67" height="102.81"/>
  </g>
  <g>
    <path class="cls-3" d="M176.29,15.16c-1.09-.38-2.61-.65-4.55-.82-1.94-.17-4.25-.25-6.92-.25-3.04,0-5.49.08-7.37.25-1.88.17-3.4.44-4.55.82s-1.97.82-2.46,1.33c-.49.5-.73,1.05-.73,1.64v88.61c0,6.65.03,13.57.09,20.76.06,7.2.2,14.12.43,20.76h-.17c-2.67-3.95-5.37-7.89-8.09-11.8-2.72-3.91-5.48-7.89-8.25-11.93-2.78-4.04-5.67-8.14-8.67-12.31-3-4.16-6.11-8.44-9.34-12.81L63.34,27.72c-1.89-2.61-3.7-4.78-5.42-6.5-1.72-1.72-3.5-3.07-5.34-4.04-1.84-.97-3.92-1.66-6.23-2.08-2.32-.42-5.2-.63-8.64-.63h-14.6c-3.09,0-5.94.72-8.55,2.15-2.61,1.43-3.92,3.83-3.92,7.2v150.71c0,.59.24,1.16.73,1.7.49.55,1.27.97,2.37,1.26,1.09.3,2.58.55,4.46.76,1.88.21,4.28.32,7.19.32s5.31-.11,7.19-.32c1.88-.21,3.4-.46,4.55-.76,1.15-.29,1.97-.71,2.46-1.26.48-.55.73-1.11.73-1.7v-98.58c0-6.23-.06-12.5-.17-18.81-.12-6.31-.29-12.5-.52-18.56h.35c3.12,4.97,6.48,10.08,10.1,15.34,3.62,5.26,7.21,10.29,10.77,15.08l68.11,92.9c2.33,3.28,4.55,5.98,6.63,8.08,2.08,2.1,4.17,3.77,6.25,4.99,2.08,1.22,4.28,2.06,6.6,2.52,2.32.46,5.03.69,8.12.69h9.81c1.55,0,3.09-.17,4.64-.5,1.55-.34,2.94-.88,4.19-1.64,1.25-.76,2.26-1.72,3.03-2.9.77-1.18,1.16-2.61,1.16-4.29V18.12c0-.59-.24-1.14-.73-1.64-.49-.5-1.28-.95-2.37-1.33Z"/>
    <path class="cls-3" d="M229.62,14.78c-1.15-.29-2.67-.55-4.57-.76-1.9-.21-4.29-.32-7.16-.32-2.65,0-4.92.11-6.82.32-1.9.21-3.45.46-4.66.76-1.21.3-2.07.69-2.59,1.2-.52.5-.78,1.09-.78,1.77v156.77c0,.67.23,1.26.69,1.77.46.5,1.26.91,2.42,1.2,1.15.3,2.7.55,4.66.76,1.95.21,4.31.32,7.07.32s5.26-.11,7.16-.32c1.9-.21,3.42-.46,4.57-.76,1.15-.29,1.95-.69,2.42-1.2.46-.5.69-1.09.69-1.77V17.74c0-.67-.23-1.26-.69-1.77-.46-.5-1.27-.9-2.42-1.2Z"/>
    <path class="cls-3" d="M571.83,170.1L496.95,18.37c-.46-.92-1.09-1.7-1.9-2.33-.81-.63-1.96-1.11-3.45-1.45-1.5-.33-3.45-.57-5.87-.69-2.42-.13-5.46-.19-9.14-.19-3.45,0-6.3.06-8.54.19-2.24.13-4.08.36-5.52.69-1.44.34-2.53.8-3.28,1.39-.75.59-1.35,1.35-1.81,2.27l-69.08,139.98-69.84-67.9,74.02-64.75c2.07-1.94,3.48-3.45,4.23-4.54.75-1.09,1.12-2.19,1.12-3.28,0-.59-.2-1.14-.6-1.64-.4-.5-1.15-.92-2.24-1.26-1.09-.34-2.56-.61-4.4-.82-1.84-.21-4.26-.32-7.25-.32s-5.44.08-7.33.25c-1.9.17-3.51.4-4.83.69-1.32.3-2.45.69-3.36,1.2-.92.5-1.73,1.14-2.42,1.89l-79.02,72.58V17.74c0-.67-.23-1.26-.69-1.77-.46-.5-1.27-.9-2.42-1.2-1.15-.29-2.67-.55-4.57-.76-1.9-.21-4.29-.32-7.16-.32s-5.12.11-7.07.32c-1.96.21-3.51.46-4.66.76-1.15.3-1.96.69-2.42,1.2-.46.5-.69,1.09-.69,1.77v156.77c0,.59.23,1.16.69,1.7.46.55,1.26.97,2.42,1.26,1.15.3,2.7.55,4.66.76,1.95.21,4.31.32,7.07.32s5.26-.11,7.16-.32c1.9-.21,3.42-.46,4.57-.76,1.15-.29,1.95-.71,2.42-1.26.46-.55.69-1.11.69-1.7v-81.67l82.13,81.67c.8.84,1.84,1.6,3.11,2.27,1.26.67,3.16,1.14,5.69,1.39,2.53.25,5.81.38,9.83.38,1.35,0,2.57-.02,3.71-.06,1.24.04,2.6.06,4.08.06,3.22,0,5.84-.08,7.85-.25,2.01-.17,3.56-.44,4.66-.82,1.09-.38,1.92-.84,2.5-1.39.57-.55,1.04-1.2,1.38-1.96l18.29-39.26h92.83l19.15,39.76c.46.76.95,1.39,1.47,1.89.52.5,1.32.91,2.41,1.2,1.09.29,2.7.5,4.83.63,2.13.13,4.97.19,8.54.19s6.41-.08,8.54-.25c2.13-.17,3.65-.55,4.57-1.14.92-.59,1.35-1.45,1.29-2.59-.06-1.14-.55-2.63-1.47-4.48ZM437.07,117.59l38.48-81.42h.17l38.99,81.42h-77.64Z"/>
  </g>
  <path class="cls-1" d="M469.99,261.17H100.96s-1.34-4.91-1.34-10.82,1.55-11.21,1.55-11.21h368.82v22.03Z"/>
</svg>